<mxfile host="app.diagrams.net" modified="2020-11-29T23:04:29.510Z" agent="5.0 (Windows NT 10.0; Win64; x64) AppleWebKit/537.36 (KHTML, like Gecko) Chrome/87.0.4280.66 Safari/537.36" etag="65Q3XobhZGtnkLe64NKv" version="13.10.4" type="github" pages="2">
  <diagram id="maOx1XsRYjcgwQs69Y0I" name="Page-2">
    <mxGraphModel dx="1673" dy="831" grid="1" gridSize="10" guides="1" tooltips="1" connect="1" arrows="1" fold="1" page="1" pageScale="1" pageWidth="827" pageHeight="1169" math="0" shadow="0">
      <root>
        <mxCell id="XY6I7VqYXuVsZNoMsVeR-0" />
        <mxCell id="XY6I7VqYXuVsZNoMsVeR-1" parent="XY6I7VqYXuVsZNoMsVeR-0" />
        <mxCell id="GESPt3fLsgeeLDVvOT6Z-9" value="Tool" style="strokeColor=inherit;fillColor=inherit;gradientColor=inherit;strokeWidth=1;shadow=0;dashed=0;align=center;html=1;shape=mxgraph.mockup.containers.rrect;rSize=0;fontSize=17;fontColor=#666666;gradientColor=none;" vertex="1" parent="XY6I7VqYXuVsZNoMsVeR-1">
          <mxGeometry width="60" height="25" relative="1" as="geometry">
            <mxPoint x="210" y="20" as="offset" />
          </mxGeometry>
        </mxCell>
        <mxCell id="GESPt3fLsgeeLDVvOT6Z-0" value="" style="strokeWidth=1;shadow=0;dashed=0;align=center;html=1;shape=mxgraph.mockup.containers.marginRect2;rectMarginTop=32;strokeColor=#666666;gradientColor=none;" vertex="1" parent="XY6I7VqYXuVsZNoMsVeR-1">
          <mxGeometry x="70" y="20" width="700" height="180" as="geometry" />
        </mxCell>
        <mxCell id="GESPt3fLsgeeLDVvOT6Z-1" value="Flow" style="strokeColor=inherit;fillColor=inherit;gradientColor=inherit;strokeWidth=1;shadow=0;dashed=0;align=center;html=1;shape=mxgraph.mockup.containers.rrect;rSize=0;fontSize=17;fontColor=#666666;gradientColor=none;" vertex="1" parent="GESPt3fLsgeeLDVvOT6Z-0">
          <mxGeometry width="60" height="25" relative="1" as="geometry">
            <mxPoint x="10" as="offset" />
          </mxGeometry>
        </mxCell>
        <mxCell id="GESPt3fLsgeeLDVvOT6Z-2" value="Viewer" style="strokeWidth=1;shadow=0;dashed=0;align=center;html=1;shape=mxgraph.mockup.containers.rrect;rSize=0;fontSize=17;fontColor=#666666;strokeColor=inherit;fillColor=inherit;" vertex="1" parent="GESPt3fLsgeeLDVvOT6Z-0">
          <mxGeometry width="60" height="25" relative="1" as="geometry">
            <mxPoint x="75" as="offset" />
          </mxGeometry>
        </mxCell>
        <mxCell id="GESPt3fLsgeeLDVvOT6Z-3" value="Setup" style="strokeColor=#008cff;fillColor=#008cff;gradientColor=inherit;strokeWidth=1;shadow=0;dashed=0;align=center;html=1;shape=mxgraph.mockup.containers.rrect;rSize=0;fontSize=17;fontColor=#ffffff;gradientColor=none;" vertex="1" parent="GESPt3fLsgeeLDVvOT6Z-0">
          <mxGeometry width="60" height="25" relative="1" as="geometry">
            <mxPoint x="210" as="offset" />
          </mxGeometry>
        </mxCell>
        <mxCell id="GESPt3fLsgeeLDVvOT6Z-4" value="" style="strokeWidth=1;shadow=0;dashed=0;align=center;html=1;shape=mxgraph.mockup.containers.topButton;rSize=5;strokeColor=#008cff;fillColor=#008cff;gradientColor=none;resizeWidth=1;movable=0;deletable=1;" vertex="1" parent="GESPt3fLsgeeLDVvOT6Z-0">
          <mxGeometry width="700" height="7" relative="1" as="geometry">
            <mxPoint y="25" as="offset" />
          </mxGeometry>
        </mxCell>
        <mxCell id="GESPt3fLsgeeLDVvOT6Z-28" value="" style="group" vertex="1" connectable="0" parent="GESPt3fLsgeeLDVvOT6Z-0">
          <mxGeometry y="34.61538461538461" width="460" height="135.3846153846154" as="geometry" />
        </mxCell>
        <mxCell id="GESPt3fLsgeeLDVvOT6Z-11" value="" style="rounded=0;whiteSpace=wrap;html=1;shadow=0;sketch=0;strokeColor=#CCCCCC;" vertex="1" parent="GESPt3fLsgeeLDVvOT6Z-28">
          <mxGeometry y="0.004615384615384244" width="230" height="135.38" as="geometry" />
        </mxCell>
        <mxCell id="GESPt3fLsgeeLDVvOT6Z-12" value="Last Status" style="text;html=1;strokeColor=none;fillColor=none;align=center;verticalAlign=middle;whiteSpace=wrap;rounded=0;shadow=0;sketch=0;" vertex="1" parent="GESPt3fLsgeeLDVvOT6Z-28">
          <mxGeometry width="70" height="17.307692307692307" as="geometry" />
        </mxCell>
        <mxCell id="GESPt3fLsgeeLDVvOT6Z-13" value="Test Program :" style="text;html=1;strokeColor=none;fillColor=none;align=center;verticalAlign=middle;whiteSpace=wrap;rounded=0;shadow=0;sketch=0;" vertex="1" parent="GESPt3fLsgeeLDVvOT6Z-28">
          <mxGeometry y="17.307692307692314" width="90" height="17.307692307692307" as="geometry" />
        </mxCell>
        <mxCell id="GESPt3fLsgeeLDVvOT6Z-14" value="Done" style="text;html=1;strokeColor=none;fillColor=none;align=center;verticalAlign=middle;whiteSpace=wrap;rounded=0;shadow=0;sketch=0;" vertex="1" parent="GESPt3fLsgeeLDVvOT6Z-28">
          <mxGeometry x="90" y="17.307692307692314" width="120" height="17.307692307692307" as="geometry" />
        </mxCell>
        <mxCell id="GESPt3fLsgeeLDVvOT6Z-15" value="Timing" style="text;html=1;strokeColor=none;fillColor=none;align=center;verticalAlign=middle;whiteSpace=wrap;rounded=0;shadow=0;sketch=0;" vertex="1" parent="GESPt3fLsgeeLDVvOT6Z-28">
          <mxGeometry y="43.269230769230774" width="90" height="17.307692307692307" as="geometry" />
        </mxCell>
        <mxCell id="GESPt3fLsgeeLDVvOT6Z-16" value="Done" style="text;html=1;strokeColor=none;fillColor=none;align=center;verticalAlign=middle;whiteSpace=wrap;rounded=0;shadow=0;sketch=0;" vertex="1" parent="GESPt3fLsgeeLDVvOT6Z-28">
          <mxGeometry x="90" y="43.269230769230774" width="120" height="17.307692307692307" as="geometry" />
        </mxCell>
        <mxCell id="GESPt3fLsgeeLDVvOT6Z-17" value="Pattern" style="text;html=1;strokeColor=none;fillColor=none;align=center;verticalAlign=middle;whiteSpace=wrap;rounded=0;shadow=0;sketch=0;" vertex="1" parent="GESPt3fLsgeeLDVvOT6Z-28">
          <mxGeometry y="69.23076923076924" width="90" height="17.307692307692307" as="geometry" />
        </mxCell>
        <mxCell id="GESPt3fLsgeeLDVvOT6Z-18" value="Done" style="text;html=1;strokeColor=none;fillColor=none;align=center;verticalAlign=middle;whiteSpace=wrap;rounded=0;shadow=0;sketch=0;" vertex="1" parent="GESPt3fLsgeeLDVvOT6Z-28">
          <mxGeometry x="90" y="69.23076923076924" width="120" height="17.307692307692307" as="geometry" />
        </mxCell>
        <mxCell id="GESPt3fLsgeeLDVvOT6Z-19" value="Information" style="text;html=1;strokeColor=none;fillColor=none;align=center;verticalAlign=middle;whiteSpace=wrap;rounded=0;shadow=0;sketch=0;" vertex="1" parent="GESPt3fLsgeeLDVvOT6Z-28">
          <mxGeometry x="70" y="115.38615384615383" width="90" height="17.307692307692307" as="geometry" />
        </mxCell>
        <mxCell id="GESPt3fLsgeeLDVvOT6Z-20" value="" style="rounded=0;whiteSpace=wrap;html=1;shadow=0;sketch=0;strokeColor=#CCCCCC;" vertex="1" parent="GESPt3fLsgeeLDVvOT6Z-28">
          <mxGeometry x="230" y="0.004615384615384244" width="230" height="135.38" as="geometry" />
        </mxCell>
        <mxCell id="GESPt3fLsgeeLDVvOT6Z-21" value="Project" style="text;html=1;strokeColor=none;fillColor=none;align=center;verticalAlign=middle;whiteSpace=wrap;rounded=0;shadow=0;sketch=0;" vertex="1" parent="GESPt3fLsgeeLDVvOT6Z-28">
          <mxGeometry x="305" y="115.38615384615383" width="90" height="17.307692307692307" as="geometry" />
        </mxCell>
        <mxCell id="GESPt3fLsgeeLDVvOT6Z-22" value="" style="html=1;verticalLabelPosition=bottom;align=center;labelBackgroundColor=#ffffff;verticalAlign=top;strokeWidth=2;strokeColor=#0080F0;shadow=0;dashed=0;shape=mxgraph.ios7.icons.down;sketch=0;" vertex="1" parent="GESPt3fLsgeeLDVvOT6Z-28">
          <mxGeometry x="339" y="34.61538461538461" width="21" height="22.067307692307693" as="geometry" />
        </mxCell>
        <mxCell id="GESPt3fLsgeeLDVvOT6Z-23" value="Download" style="text;html=1;strokeColor=none;fillColor=none;align=center;verticalAlign=middle;whiteSpace=wrap;rounded=0;shadow=0;sketch=0;" vertex="1" parent="GESPt3fLsgeeLDVvOT6Z-28">
          <mxGeometry x="320" y="64.90384615384616" width="60" height="17.307692307692307" as="geometry" />
        </mxCell>
        <mxCell id="GESPt3fLsgeeLDVvOT6Z-24" value="" style="aspect=fixed;perimeter=ellipsePerimeter;html=1;align=center;shadow=0;dashed=0;spacingTop=3;image;image=img/lib/active_directory/folder_open.svg;sketch=0;strokeColor=#CCCCCC;" vertex="1" parent="GESPt3fLsgeeLDVvOT6Z-28">
          <mxGeometry x="261.07" y="30.504807692307693" width="27.86538461538462" height="30.28846153846154" as="geometry" />
        </mxCell>
        <mxCell id="GESPt3fLsgeeLDVvOT6Z-25" value="Open" style="text;html=1;strokeColor=none;fillColor=none;align=center;verticalAlign=middle;whiteSpace=wrap;rounded=0;shadow=0;sketch=0;" vertex="1" parent="GESPt3fLsgeeLDVvOT6Z-28">
          <mxGeometry x="245" y="64.90384615384616" width="60" height="17.307692307692307" as="geometry" />
        </mxCell>
        <mxCell id="GESPt3fLsgeeLDVvOT6Z-26" value="" style="shape=image;html=1;verticalAlign=top;verticalLabelPosition=bottom;labelBackgroundColor=#ffffff;imageAspect=0;aspect=fixed;image=https://cdn1.iconfinder.com/data/icons/media-player-long-shadow/50/Stop-128.png;shadow=0;sketch=0;strokeColor=#CCCCCC;" vertex="1" parent="GESPt3fLsgeeLDVvOT6Z-28">
          <mxGeometry x="410" y="34.61538461538461" width="25.961538461538463" height="25.961538461538463" as="geometry" />
        </mxCell>
        <mxCell id="GESPt3fLsgeeLDVvOT6Z-27" value="Stop" style="text;html=1;strokeColor=none;fillColor=none;align=center;verticalAlign=middle;whiteSpace=wrap;rounded=0;shadow=0;sketch=0;" vertex="1" parent="GESPt3fLsgeeLDVvOT6Z-28">
          <mxGeometry x="395" y="64.90384615384616" width="60" height="17.307692307692307" as="geometry" />
        </mxCell>
        <mxCell id="GESPt3fLsgeeLDVvOT6Z-29" value="" style="html=1;shadow=0;dashed=0;shape=mxgraph.bootstrap.rrect;rSize=5;strokeColor=#999999;strokeWidth=1;fillColor=#FFFFFF;fontColor=#6C767D;whiteSpace=wrap;align=left;verticalAlign=middle;spacingLeft=10;fontSize=14;spacing=10;sketch=0;" vertex="1" parent="XY6I7VqYXuVsZNoMsVeR-1">
          <mxGeometry x="70" y="230" width="700" height="490" as="geometry" />
        </mxCell>
        <mxCell id="GESPt3fLsgeeLDVvOT6Z-30" value="Setup" style="html=1;shadow=0;dashed=0;shape=mxgraph.bootstrap.rrect;rSize=5;strokeWidth=1;fillColor=#b1ddf0;whiteSpace=wrap;align=left;verticalAlign=middle;spacingLeft=10;fontSize=14;spacing=10;sketch=0;strokeColor=none;" vertex="1" parent="XY6I7VqYXuVsZNoMsVeR-1">
          <mxGeometry x="70" y="200" width="80" height="30" as="geometry" />
        </mxCell>
        <mxCell id="GESPt3fLsgeeLDVvOT6Z-31" value="Project" style="rounded=1;whiteSpace=wrap;html=1;arcSize=50;strokeColor=none;strokeWidth=1;fillColor=#F8F9FA;fontColor=#000000;whiteSpace=wrap;align=left;verticalAlign=middle;spacingLeft=0;fontStyle=1;fontSize=14;spacing=10;shadow=0;sketch=0;" vertex="1" parent="XY6I7VqYXuVsZNoMsVeR-1">
          <mxGeometry x="80" y="235" width="70" height="30" as="geometry" />
        </mxCell>
        <mxCell id="GESPt3fLsgeeLDVvOT6Z-32" value="C:\\xxxx\\xxxx.spjt" style="html=1;shadow=0;dashed=0;shape=mxgraph.bootstrap.rrect;rSize=5;strokeColor=#CED4DA;html=1;whiteSpace=wrap;fillColor=#FFFFFF;fontColor=#7D868C;align=left;spacing=15;fontSize=14;sketch=0;" vertex="1" parent="XY6I7VqYXuVsZNoMsVeR-1">
          <mxGeometry x="159" y="235" width="591" height="30" as="geometry" />
        </mxCell>
        <mxCell id="GESPt3fLsgeeLDVvOT6Z-33" value="" style="shape=triangle;direction=south;fillColor=#343A40;strokeColor=none;perimeter=none;" vertex="1" parent="GESPt3fLsgeeLDVvOT6Z-32">
          <mxGeometry x="1" y="0.5" width="7" height="3" relative="1" as="geometry">
            <mxPoint x="-40" y="1" as="offset" />
          </mxGeometry>
        </mxCell>
        <mxCell id="GESPt3fLsgeeLDVvOT6Z-34" value="" style="shape=triangle;direction=north;fillColor=#343A40;strokeColor=none;perimeter=none;" vertex="1" parent="GESPt3fLsgeeLDVvOT6Z-32">
          <mxGeometry x="1" y="0.5" width="7" height="3" relative="1" as="geometry">
            <mxPoint x="-40" y="-4" as="offset" />
          </mxGeometry>
        </mxCell>
        <mxCell id="GESPt3fLsgeeLDVvOT6Z-35" value="" style="html=1;shadow=0;dashed=0;shape=mxgraph.bootstrap.rightButton;strokeColor=#CED4DA;gradientColor=inherit;fontColor=inherit;fillColor=#E9ECEF;rSize=5;perimeter=none;whiteSpace=wrap;resizeHeight=1;fontSize=14;align=left;spacing=15;" vertex="1" parent="GESPt3fLsgeeLDVvOT6Z-32">
          <mxGeometry x="1" width="31" height="30" relative="1" as="geometry">
            <mxPoint x="-31" as="offset" />
          </mxGeometry>
        </mxCell>
        <mxCell id="GESPt3fLsgeeLDVvOT6Z-36" value="Recently Used" style="rounded=1;whiteSpace=wrap;html=1;arcSize=50;strokeColor=none;strokeWidth=1;fillColor=#F8F9FA;fontColor=#000000;whiteSpace=wrap;align=left;verticalAlign=middle;spacingLeft=0;fontStyle=1;fontSize=14;spacing=10;shadow=0;sketch=0;" vertex="1" parent="XY6I7VqYXuVsZNoMsVeR-1">
          <mxGeometry x="80" y="290" width="130" height="20" as="geometry" />
        </mxCell>
        <mxCell id="GESPt3fLsgeeLDVvOT6Z-37" value="A Week Ago" style="rounded=1;whiteSpace=wrap;html=1;arcSize=50;strokeColor=none;strokeWidth=1;fillColor=#F8F9FA;fontColor=#000000;whiteSpace=wrap;align=left;verticalAlign=middle;spacingLeft=0;fontStyle=1;fontSize=14;spacing=10;shadow=0;sketch=0;" vertex="1" parent="XY6I7VqYXuVsZNoMsVeR-1">
          <mxGeometry x="80" y="440" width="110" height="20" as="geometry" />
        </mxCell>
        <mxCell id="GESPt3fLsgeeLDVvOT6Z-38" value="projectxxx1" style="rounded=1;whiteSpace=wrap;html=1;shadow=0;sketch=0;strokeColor=#CCCCCC;" vertex="1" parent="XY6I7VqYXuVsZNoMsVeR-1">
          <mxGeometry x="85" y="320" width="120" height="30" as="geometry" />
        </mxCell>
        <mxCell id="GESPt3fLsgeeLDVvOT6Z-39" value="projectxxx2" style="rounded=1;whiteSpace=wrap;html=1;shadow=0;sketch=0;strokeColor=#CCCCCC;" vertex="1" parent="XY6I7VqYXuVsZNoMsVeR-1">
          <mxGeometry x="85" y="350" width="120" height="30" as="geometry" />
        </mxCell>
        <mxCell id="GESPt3fLsgeeLDVvOT6Z-40" value="projectxxx3" style="rounded=1;whiteSpace=wrap;html=1;shadow=0;sketch=0;strokeColor=#CCCCCC;" vertex="1" parent="XY6I7VqYXuVsZNoMsVeR-1">
          <mxGeometry x="85" y="380" width="120" height="30" as="geometry" />
        </mxCell>
        <mxCell id="GESPt3fLsgeeLDVvOT6Z-41" value="projectxxx4" style="rounded=1;whiteSpace=wrap;html=1;shadow=0;sketch=0;strokeColor=#CCCCCC;" vertex="1" parent="XY6I7VqYXuVsZNoMsVeR-1">
          <mxGeometry x="85" y="470" width="120" height="30" as="geometry" />
        </mxCell>
        <mxCell id="GESPt3fLsgeeLDVvOT6Z-42" value="projectxxx5" style="rounded=1;whiteSpace=wrap;html=1;shadow=0;sketch=0;strokeColor=#CCCCCC;" vertex="1" parent="XY6I7VqYXuVsZNoMsVeR-1">
          <mxGeometry x="85" y="500" width="120" height="30" as="geometry" />
        </mxCell>
        <mxCell id="GESPt3fLsgeeLDVvOT6Z-43" value="projectxxx6" style="rounded=1;whiteSpace=wrap;html=1;shadow=0;sketch=0;strokeColor=#CCCCCC;" vertex="1" parent="XY6I7VqYXuVsZNoMsVeR-1">
          <mxGeometry x="85" y="530" width="120" height="30" as="geometry" />
        </mxCell>
        <mxCell id="GESPt3fLsgeeLDVvOT6Z-44" value="Download Option" style="rounded=1;whiteSpace=wrap;html=1;arcSize=50;strokeColor=none;strokeWidth=1;fillColor=#F8F9FA;fontColor=#000000;whiteSpace=wrap;align=left;verticalAlign=middle;spacingLeft=0;fontStyle=1;fontSize=14;spacing=10;shadow=0;sketch=0;" vertex="1" parent="XY6I7VqYXuVsZNoMsVeR-1">
          <mxGeometry x="230" y="290" width="150" height="20" as="geometry" />
        </mxCell>
        <mxCell id="GESPt3fLsgeeLDVvOT6Z-45" value="Test Program" style="text;html=1;strokeColor=none;fillColor=none;align=center;verticalAlign=middle;whiteSpace=wrap;rounded=0;shadow=0;sketch=0;" vertex="1" parent="XY6I7VqYXuVsZNoMsVeR-1">
          <mxGeometry x="240" y="325" width="90" height="20" as="geometry" />
        </mxCell>
        <mxCell id="GESPt3fLsgeeLDVvOT6Z-46" value="" style="shape=image;html=1;verticalAlign=top;verticalLabelPosition=bottom;labelBackgroundColor=#ffffff;imageAspect=0;aspect=fixed;image=https://cdn1.iconfinder.com/data/icons/material-core/18/check-box-outline-128.png;shadow=0;sketch=0;strokeColor=#CCCCCC;" vertex="1" parent="XY6I7VqYXuVsZNoMsVeR-1">
          <mxGeometry x="340" y="327.5" width="15" height="15" as="geometry" />
        </mxCell>
        <mxCell id="GESPt3fLsgeeLDVvOT6Z-47" value="Timing" style="text;html=1;strokeColor=none;fillColor=none;align=center;verticalAlign=middle;whiteSpace=wrap;rounded=0;shadow=0;sketch=0;" vertex="1" parent="XY6I7VqYXuVsZNoMsVeR-1">
          <mxGeometry x="240" y="355" width="90" height="20" as="geometry" />
        </mxCell>
        <mxCell id="GESPt3fLsgeeLDVvOT6Z-48" value="" style="shape=image;html=1;verticalAlign=top;verticalLabelPosition=bottom;labelBackgroundColor=#ffffff;imageAspect=0;aspect=fixed;image=https://cdn1.iconfinder.com/data/icons/material-core/18/check-box-outline-128.png;shadow=0;sketch=0;strokeColor=#CCCCCC;" vertex="1" parent="XY6I7VqYXuVsZNoMsVeR-1">
          <mxGeometry x="340" y="357.5" width="15" height="15" as="geometry" />
        </mxCell>
        <mxCell id="GESPt3fLsgeeLDVvOT6Z-49" value="Pattern" style="text;html=1;strokeColor=none;fillColor=none;align=center;verticalAlign=middle;whiteSpace=wrap;rounded=0;shadow=0;sketch=0;" vertex="1" parent="XY6I7VqYXuVsZNoMsVeR-1">
          <mxGeometry x="240" y="380" width="90" height="20" as="geometry" />
        </mxCell>
        <mxCell id="GESPt3fLsgeeLDVvOT6Z-50" value="" style="shape=image;html=1;verticalAlign=top;verticalLabelPosition=bottom;labelBackgroundColor=#ffffff;imageAspect=0;aspect=fixed;image=https://cdn1.iconfinder.com/data/icons/material-core/18/check-box-outline-128.png;shadow=0;sketch=0;strokeColor=#CCCCCC;" vertex="1" parent="XY6I7VqYXuVsZNoMsVeR-1">
          <mxGeometry x="340" y="382.5" width="15" height="15" as="geometry" />
        </mxCell>
        <mxCell id="GESPt3fLsgeeLDVvOT6Z-51" value="" style="html=1;shadow=0;dashed=0;shape=mxgraph.bootstrap.rrect;rSize=5;strokeColor=#6C767D;html=1;whiteSpace=wrap;fillColor=#ffffff;fontColor=#6C767D;verticalAlign=bottom;align=left;spacing=20;spacingBottom=0;fontSize=14;sketch=0;" vertex="1" parent="XY6I7VqYXuVsZNoMsVeR-1">
          <mxGeometry x="390" y="290" width="370" height="410" as="geometry" />
        </mxCell>
        <mxCell id="GESPt3fLsgeeLDVvOT6Z-52" value="" style="html=1;shadow=0;dashed=0;shape=mxgraph.bootstrap.topButton;rSize=5;perimeter=none;whiteSpace=wrap;fillColor=#F7F7F7;strokeColor=#6C767D;fontColor=#6C767D;resizeWidth=1;fontSize=18;align=left;spacing=20;" vertex="1" parent="GESPt3fLsgeeLDVvOT6Z-51">
          <mxGeometry width="370" height="30" relative="1" as="geometry" />
        </mxCell>
        <mxCell id="GESPt3fLsgeeLDVvOT6Z-57" value="" style="group" vertex="1" connectable="0" parent="GESPt3fLsgeeLDVvOT6Z-51">
          <mxGeometry width="370" height="30" as="geometry" />
        </mxCell>
        <mxCell id="GESPt3fLsgeeLDVvOT6Z-53" value="" style="html=1;shadow=0;dashed=0;shape=mxgraph.bootstrap.rrect;rSize=5;strokeColor=#6C767D;strokeWidth=1;fillColor=none;fontColor=#6C767D;whiteSpace=wrap;align=center;verticalAlign=middle;spacingLeft=0;fontStyle=0;fontSize=16;spacing=5;sketch=0;" vertex="1" parent="GESPt3fLsgeeLDVvOT6Z-57">
          <mxGeometry width="30" height="30" as="geometry" />
        </mxCell>
        <mxCell id="GESPt3fLsgeeLDVvOT6Z-54" value="Pattern Name" style="html=1;shadow=0;dashed=0;shape=mxgraph.bootstrap.rrect;rSize=5;strokeColor=#6C767D;strokeWidth=1;fillColor=none;fontColor=#6C767D;whiteSpace=wrap;align=center;verticalAlign=middle;spacingLeft=0;fontStyle=0;fontSize=12;spacing=5;sketch=0;" vertex="1" parent="GESPt3fLsgeeLDVvOT6Z-57">
          <mxGeometry x="30" width="80" height="30" as="geometry" />
        </mxCell>
        <mxCell id="GESPt3fLsgeeLDVvOT6Z-55" value="Progress" style="html=1;shadow=0;dashed=0;shape=mxgraph.bootstrap.rrect;rSize=5;strokeColor=#6C767D;strokeWidth=1;fillColor=none;fontColor=#6C767D;whiteSpace=wrap;align=center;verticalAlign=middle;spacingLeft=0;fontStyle=0;fontSize=12;spacing=5;sketch=0;" vertex="1" parent="GESPt3fLsgeeLDVvOT6Z-57">
          <mxGeometry x="110" width="180" height="30" as="geometry" />
        </mxCell>
        <mxCell id="GESPt3fLsgeeLDVvOT6Z-56" value="Status" style="html=1;shadow=0;dashed=0;shape=mxgraph.bootstrap.rrect;rSize=5;strokeColor=#6C767D;strokeWidth=1;fillColor=none;fontColor=#6C767D;whiteSpace=wrap;align=center;verticalAlign=middle;spacingLeft=0;fontStyle=0;fontSize=12;spacing=5;sketch=0;" vertex="1" parent="GESPt3fLsgeeLDVvOT6Z-57">
          <mxGeometry x="290" width="80" height="30" as="geometry" />
        </mxCell>
        <mxCell id="GESPt3fLsgeeLDVvOT6Z-103" value="" style="shape=image;html=1;verticalAlign=top;verticalLabelPosition=bottom;labelBackgroundColor=#ffffff;imageAspect=0;aspect=fixed;image=https://cdn1.iconfinder.com/data/icons/material-core/18/check-box-outline-128.png;shadow=0;sketch=0;strokeColor=#CCCCCC;" vertex="1" parent="GESPt3fLsgeeLDVvOT6Z-57">
          <mxGeometry x="7.5" y="7.5" width="15" height="15" as="geometry" />
        </mxCell>
        <mxCell id="GESPt3fLsgeeLDVvOT6Z-58" value="" style="group" vertex="1" connectable="0" parent="GESPt3fLsgeeLDVvOT6Z-51">
          <mxGeometry y="30" width="370" height="30" as="geometry" />
        </mxCell>
        <mxCell id="GESPt3fLsgeeLDVvOT6Z-59" value="" style="html=1;shadow=0;dashed=0;shape=mxgraph.bootstrap.rrect;rSize=5;strokeColor=#6C767D;strokeWidth=1;fillColor=none;fontColor=#6C767D;whiteSpace=wrap;align=center;verticalAlign=middle;spacingLeft=0;fontStyle=0;fontSize=16;spacing=5;sketch=0;" vertex="1" parent="GESPt3fLsgeeLDVvOT6Z-58">
          <mxGeometry width="30" height="30" as="geometry" />
        </mxCell>
        <mxCell id="GESPt3fLsgeeLDVvOT6Z-60" value="Pattern1" style="html=1;shadow=0;dashed=0;shape=mxgraph.bootstrap.rrect;rSize=5;strokeColor=#6C767D;strokeWidth=1;fillColor=none;fontColor=#6C767D;whiteSpace=wrap;align=center;verticalAlign=middle;spacingLeft=0;fontStyle=0;fontSize=12;spacing=5;sketch=0;" vertex="1" parent="GESPt3fLsgeeLDVvOT6Z-58">
          <mxGeometry x="30" width="80" height="30" as="geometry" />
        </mxCell>
        <mxCell id="GESPt3fLsgeeLDVvOT6Z-61" value="" style="html=1;shadow=0;dashed=0;shape=mxgraph.bootstrap.rrect;rSize=5;strokeColor=#6C767D;strokeWidth=1;fillColor=none;fontColor=#6C767D;whiteSpace=wrap;align=center;verticalAlign=middle;spacingLeft=0;fontStyle=0;fontSize=12;spacing=5;sketch=0;" vertex="1" parent="GESPt3fLsgeeLDVvOT6Z-58">
          <mxGeometry x="110" width="180" height="30" as="geometry" />
        </mxCell>
        <mxCell id="GESPt3fLsgeeLDVvOT6Z-62" value="Status" style="html=1;shadow=0;dashed=0;shape=mxgraph.bootstrap.rrect;rSize=5;strokeColor=#6C767D;strokeWidth=1;fillColor=none;fontColor=#6C767D;whiteSpace=wrap;align=center;verticalAlign=middle;spacingLeft=0;fontStyle=0;fontSize=12;spacing=5;sketch=0;" vertex="1" parent="GESPt3fLsgeeLDVvOT6Z-58">
          <mxGeometry x="290" width="80" height="30" as="geometry" />
        </mxCell>
        <mxCell id="GESPt3fLsgeeLDVvOT6Z-104" value="" style="shape=image;html=1;verticalAlign=top;verticalLabelPosition=bottom;labelBackgroundColor=#ffffff;imageAspect=0;aspect=fixed;image=https://cdn1.iconfinder.com/data/icons/material-core/18/check-box-outline-128.png;shadow=0;sketch=0;strokeColor=#CCCCCC;" vertex="1" parent="GESPt3fLsgeeLDVvOT6Z-58">
          <mxGeometry x="7.5" y="7.5" width="15" height="15" as="geometry" />
        </mxCell>
        <mxCell id="GESPt3fLsgeeLDVvOT6Z-113" value="" style="html=1;shadow=0;dashed=0;shape=mxgraph.bootstrap.rrect;rSize=5;strokeColor=none;fillColor=#f6f6f6;whiteSpace=wrap;sketch=0;fontSize=12;" vertex="1" parent="GESPt3fLsgeeLDVvOT6Z-58">
          <mxGeometry x="115" y="11.5" width="170" height="7" as="geometry" />
        </mxCell>
        <mxCell id="GESPt3fLsgeeLDVvOT6Z-114" value="" style="html=1;shadow=0;dashed=0;shape=mxgraph.bootstrap.leftButtonStriped;fillColor=#0085FC;fontColor=#FFFFFF;whiteSpace=wrap;" vertex="1" parent="GESPt3fLsgeeLDVvOT6Z-113">
          <mxGeometry width="106.25" height="7" as="geometry" />
        </mxCell>
        <mxCell id="GESPt3fLsgeeLDVvOT6Z-63" value="" style="group" vertex="1" connectable="0" parent="GESPt3fLsgeeLDVvOT6Z-51">
          <mxGeometry y="60" width="370" height="30" as="geometry" />
        </mxCell>
        <mxCell id="GESPt3fLsgeeLDVvOT6Z-64" value="" style="html=1;shadow=0;dashed=0;shape=mxgraph.bootstrap.rrect;rSize=5;strokeColor=#6C767D;strokeWidth=1;fillColor=none;fontColor=#6C767D;whiteSpace=wrap;align=center;verticalAlign=middle;spacingLeft=0;fontStyle=0;fontSize=16;spacing=5;sketch=0;" vertex="1" parent="GESPt3fLsgeeLDVvOT6Z-63">
          <mxGeometry width="30" height="30" as="geometry" />
        </mxCell>
        <mxCell id="GESPt3fLsgeeLDVvOT6Z-65" value="Pattern2" style="html=1;shadow=0;dashed=0;shape=mxgraph.bootstrap.rrect;rSize=5;strokeColor=#6C767D;strokeWidth=1;fillColor=none;fontColor=#6C767D;whiteSpace=wrap;align=center;verticalAlign=middle;spacingLeft=0;fontStyle=0;fontSize=12;spacing=5;sketch=0;" vertex="1" parent="GESPt3fLsgeeLDVvOT6Z-63">
          <mxGeometry x="30" width="80" height="30" as="geometry" />
        </mxCell>
        <mxCell id="GESPt3fLsgeeLDVvOT6Z-66" value="" style="html=1;shadow=0;dashed=0;shape=mxgraph.bootstrap.rrect;rSize=5;strokeColor=#6C767D;strokeWidth=1;fillColor=none;fontColor=#6C767D;whiteSpace=wrap;align=center;verticalAlign=middle;spacingLeft=0;fontStyle=0;fontSize=12;spacing=5;sketch=0;" vertex="1" parent="GESPt3fLsgeeLDVvOT6Z-63">
          <mxGeometry x="110" width="180" height="30" as="geometry" />
        </mxCell>
        <mxCell id="GESPt3fLsgeeLDVvOT6Z-67" value="Status" style="html=1;shadow=0;dashed=0;shape=mxgraph.bootstrap.rrect;rSize=5;strokeColor=#6C767D;strokeWidth=1;fillColor=none;fontColor=#6C767D;whiteSpace=wrap;align=center;verticalAlign=middle;spacingLeft=0;fontStyle=0;fontSize=12;spacing=5;sketch=0;" vertex="1" parent="GESPt3fLsgeeLDVvOT6Z-63">
          <mxGeometry x="290" width="80" height="30" as="geometry" />
        </mxCell>
        <mxCell id="GESPt3fLsgeeLDVvOT6Z-105" value="" style="shape=image;html=1;verticalAlign=top;verticalLabelPosition=bottom;labelBackgroundColor=#ffffff;imageAspect=0;aspect=fixed;image=https://cdn1.iconfinder.com/data/icons/material-core/18/check-box-outline-128.png;shadow=0;sketch=0;strokeColor=#CCCCCC;" vertex="1" parent="GESPt3fLsgeeLDVvOT6Z-63">
          <mxGeometry x="7.5" y="7.5" width="15" height="15" as="geometry" />
        </mxCell>
        <mxCell id="GESPt3fLsgeeLDVvOT6Z-115" value="" style="html=1;shadow=0;dashed=0;shape=mxgraph.bootstrap.rrect;rSize=5;strokeColor=none;fillColor=#f6f6f6;whiteSpace=wrap;sketch=0;fontSize=12;" vertex="1" parent="GESPt3fLsgeeLDVvOT6Z-63">
          <mxGeometry x="115" y="11.5" width="170" height="7" as="geometry" />
        </mxCell>
        <mxCell id="GESPt3fLsgeeLDVvOT6Z-116" value="" style="html=1;shadow=0;dashed=0;shape=mxgraph.bootstrap.leftButtonStriped;fillColor=#0085FC;fontColor=#FFFFFF;whiteSpace=wrap;" vertex="1" parent="GESPt3fLsgeeLDVvOT6Z-115">
          <mxGeometry width="106.25" height="7" as="geometry" />
        </mxCell>
        <mxCell id="GESPt3fLsgeeLDVvOT6Z-68" value="" style="group" vertex="1" connectable="0" parent="GESPt3fLsgeeLDVvOT6Z-51">
          <mxGeometry y="90" width="370" height="30" as="geometry" />
        </mxCell>
        <mxCell id="GESPt3fLsgeeLDVvOT6Z-69" value="" style="html=1;shadow=0;dashed=0;shape=mxgraph.bootstrap.rrect;rSize=5;strokeColor=#6C767D;strokeWidth=1;fillColor=none;fontColor=#6C767D;whiteSpace=wrap;align=center;verticalAlign=middle;spacingLeft=0;fontStyle=0;fontSize=16;spacing=5;sketch=0;" vertex="1" parent="GESPt3fLsgeeLDVvOT6Z-68">
          <mxGeometry width="30" height="30" as="geometry" />
        </mxCell>
        <mxCell id="GESPt3fLsgeeLDVvOT6Z-70" value="Pattern3" style="html=1;shadow=0;dashed=0;shape=mxgraph.bootstrap.rrect;rSize=5;strokeColor=#6C767D;strokeWidth=1;fillColor=none;fontColor=#6C767D;whiteSpace=wrap;align=center;verticalAlign=middle;spacingLeft=0;fontStyle=0;fontSize=12;spacing=5;sketch=0;" vertex="1" parent="GESPt3fLsgeeLDVvOT6Z-68">
          <mxGeometry x="30" width="80" height="30" as="geometry" />
        </mxCell>
        <mxCell id="GESPt3fLsgeeLDVvOT6Z-71" value="" style="html=1;shadow=0;dashed=0;shape=mxgraph.bootstrap.rrect;rSize=5;strokeColor=#6C767D;strokeWidth=1;fillColor=none;fontColor=#6C767D;whiteSpace=wrap;align=center;verticalAlign=middle;spacingLeft=0;fontStyle=0;fontSize=12;spacing=5;sketch=0;" vertex="1" parent="GESPt3fLsgeeLDVvOT6Z-68">
          <mxGeometry x="110" width="180" height="30" as="geometry" />
        </mxCell>
        <mxCell id="GESPt3fLsgeeLDVvOT6Z-72" value="Status" style="html=1;shadow=0;dashed=0;shape=mxgraph.bootstrap.rrect;rSize=5;strokeColor=#6C767D;strokeWidth=1;fillColor=none;fontColor=#6C767D;whiteSpace=wrap;align=center;verticalAlign=middle;spacingLeft=0;fontStyle=0;fontSize=12;spacing=5;sketch=0;" vertex="1" parent="GESPt3fLsgeeLDVvOT6Z-68">
          <mxGeometry x="290" width="80" height="30" as="geometry" />
        </mxCell>
        <mxCell id="GESPt3fLsgeeLDVvOT6Z-106" value="" style="shape=image;html=1;verticalAlign=top;verticalLabelPosition=bottom;labelBackgroundColor=#ffffff;imageAspect=0;aspect=fixed;image=https://cdn1.iconfinder.com/data/icons/material-core/18/check-box-outline-128.png;shadow=0;sketch=0;strokeColor=#CCCCCC;" vertex="1" parent="GESPt3fLsgeeLDVvOT6Z-68">
          <mxGeometry x="7.5" y="7.5" width="15" height="15" as="geometry" />
        </mxCell>
        <mxCell id="GESPt3fLsgeeLDVvOT6Z-117" value="" style="html=1;shadow=0;dashed=0;shape=mxgraph.bootstrap.rrect;rSize=5;strokeColor=none;fillColor=#f6f6f6;whiteSpace=wrap;sketch=0;fontSize=12;" vertex="1" parent="GESPt3fLsgeeLDVvOT6Z-68">
          <mxGeometry x="115" y="11.5" width="170" height="7" as="geometry" />
        </mxCell>
        <mxCell id="GESPt3fLsgeeLDVvOT6Z-118" value="" style="html=1;shadow=0;dashed=0;shape=mxgraph.bootstrap.leftButtonStriped;fillColor=#0085FC;fontColor=#FFFFFF;whiteSpace=wrap;" vertex="1" parent="GESPt3fLsgeeLDVvOT6Z-117">
          <mxGeometry width="106.25" height="7" as="geometry" />
        </mxCell>
        <mxCell id="GESPt3fLsgeeLDVvOT6Z-73" value="" style="group" vertex="1" connectable="0" parent="GESPt3fLsgeeLDVvOT6Z-51">
          <mxGeometry y="120" width="370" height="30" as="geometry" />
        </mxCell>
        <mxCell id="GESPt3fLsgeeLDVvOT6Z-74" value="" style="html=1;shadow=0;dashed=0;shape=mxgraph.bootstrap.rrect;rSize=5;strokeColor=#6C767D;strokeWidth=1;fillColor=none;fontColor=#6C767D;whiteSpace=wrap;align=center;verticalAlign=middle;spacingLeft=0;fontStyle=0;fontSize=16;spacing=5;sketch=0;" vertex="1" parent="GESPt3fLsgeeLDVvOT6Z-73">
          <mxGeometry width="30" height="30" as="geometry" />
        </mxCell>
        <mxCell id="GESPt3fLsgeeLDVvOT6Z-75" value="Pattern4" style="html=1;shadow=0;dashed=0;shape=mxgraph.bootstrap.rrect;rSize=5;strokeColor=#6C767D;strokeWidth=1;fillColor=none;fontColor=#6C767D;whiteSpace=wrap;align=center;verticalAlign=middle;spacingLeft=0;fontStyle=0;fontSize=12;spacing=5;sketch=0;" vertex="1" parent="GESPt3fLsgeeLDVvOT6Z-73">
          <mxGeometry x="30" width="80" height="30" as="geometry" />
        </mxCell>
        <mxCell id="GESPt3fLsgeeLDVvOT6Z-76" value="" style="html=1;shadow=0;dashed=0;shape=mxgraph.bootstrap.rrect;rSize=5;strokeColor=#6C767D;strokeWidth=1;fillColor=none;fontColor=#6C767D;whiteSpace=wrap;align=center;verticalAlign=middle;spacingLeft=0;fontStyle=0;fontSize=12;spacing=5;sketch=0;" vertex="1" parent="GESPt3fLsgeeLDVvOT6Z-73">
          <mxGeometry x="110" width="180" height="30" as="geometry" />
        </mxCell>
        <mxCell id="GESPt3fLsgeeLDVvOT6Z-77" value="Status" style="html=1;shadow=0;dashed=0;shape=mxgraph.bootstrap.rrect;rSize=5;strokeColor=#6C767D;strokeWidth=1;fillColor=none;fontColor=#6C767D;whiteSpace=wrap;align=center;verticalAlign=middle;spacingLeft=0;fontStyle=0;fontSize=12;spacing=5;sketch=0;" vertex="1" parent="GESPt3fLsgeeLDVvOT6Z-73">
          <mxGeometry x="290" width="80" height="30" as="geometry" />
        </mxCell>
        <mxCell id="GESPt3fLsgeeLDVvOT6Z-107" value="" style="shape=image;html=1;verticalAlign=top;verticalLabelPosition=bottom;labelBackgroundColor=#ffffff;imageAspect=0;aspect=fixed;image=https://cdn1.iconfinder.com/data/icons/material-core/18/check-box-outline-128.png;shadow=0;sketch=0;strokeColor=#CCCCCC;" vertex="1" parent="GESPt3fLsgeeLDVvOT6Z-73">
          <mxGeometry x="7.5" y="7.5" width="15" height="15" as="geometry" />
        </mxCell>
        <mxCell id="GESPt3fLsgeeLDVvOT6Z-119" value="" style="html=1;shadow=0;dashed=0;shape=mxgraph.bootstrap.rrect;rSize=5;strokeColor=none;fillColor=#f6f6f6;whiteSpace=wrap;sketch=0;fontSize=12;" vertex="1" parent="GESPt3fLsgeeLDVvOT6Z-73">
          <mxGeometry x="115" y="11.5" width="170" height="7" as="geometry" />
        </mxCell>
        <mxCell id="GESPt3fLsgeeLDVvOT6Z-120" value="" style="html=1;shadow=0;dashed=0;shape=mxgraph.bootstrap.leftButtonStriped;fillColor=#0085FC;fontColor=#FFFFFF;whiteSpace=wrap;" vertex="1" parent="GESPt3fLsgeeLDVvOT6Z-119">
          <mxGeometry width="106.25" height="7" as="geometry" />
        </mxCell>
        <mxCell id="GESPt3fLsgeeLDVvOT6Z-78" value="" style="group" vertex="1" connectable="0" parent="GESPt3fLsgeeLDVvOT6Z-51">
          <mxGeometry y="150" width="370" height="30" as="geometry" />
        </mxCell>
        <mxCell id="GESPt3fLsgeeLDVvOT6Z-79" value="" style="html=1;shadow=0;dashed=0;shape=mxgraph.bootstrap.rrect;rSize=5;strokeColor=#6C767D;strokeWidth=1;fillColor=none;fontColor=#6C767D;whiteSpace=wrap;align=center;verticalAlign=middle;spacingLeft=0;fontStyle=0;fontSize=16;spacing=5;sketch=0;" vertex="1" parent="GESPt3fLsgeeLDVvOT6Z-78">
          <mxGeometry width="30" height="30" as="geometry" />
        </mxCell>
        <mxCell id="GESPt3fLsgeeLDVvOT6Z-80" value="Pattern5" style="html=1;shadow=0;dashed=0;shape=mxgraph.bootstrap.rrect;rSize=5;strokeColor=#6C767D;strokeWidth=1;fillColor=none;fontColor=#6C767D;whiteSpace=wrap;align=center;verticalAlign=middle;spacingLeft=0;fontStyle=0;fontSize=12;spacing=5;sketch=0;" vertex="1" parent="GESPt3fLsgeeLDVvOT6Z-78">
          <mxGeometry x="30" width="80" height="30" as="geometry" />
        </mxCell>
        <mxCell id="GESPt3fLsgeeLDVvOT6Z-81" value="" style="html=1;shadow=0;dashed=0;shape=mxgraph.bootstrap.rrect;rSize=5;strokeColor=#6C767D;strokeWidth=1;fillColor=none;fontColor=#6C767D;whiteSpace=wrap;align=center;verticalAlign=middle;spacingLeft=0;fontStyle=0;fontSize=12;spacing=5;sketch=0;" vertex="1" parent="GESPt3fLsgeeLDVvOT6Z-78">
          <mxGeometry x="110" width="180" height="30" as="geometry" />
        </mxCell>
        <mxCell id="GESPt3fLsgeeLDVvOT6Z-82" value="Status" style="html=1;shadow=0;dashed=0;shape=mxgraph.bootstrap.rrect;rSize=5;strokeColor=#6C767D;strokeWidth=1;fillColor=none;fontColor=#6C767D;whiteSpace=wrap;align=center;verticalAlign=middle;spacingLeft=0;fontStyle=0;fontSize=12;spacing=5;sketch=0;" vertex="1" parent="GESPt3fLsgeeLDVvOT6Z-78">
          <mxGeometry x="290" width="80" height="30" as="geometry" />
        </mxCell>
        <mxCell id="GESPt3fLsgeeLDVvOT6Z-108" value="" style="shape=image;html=1;verticalAlign=top;verticalLabelPosition=bottom;labelBackgroundColor=#ffffff;imageAspect=0;aspect=fixed;image=https://cdn1.iconfinder.com/data/icons/material-core/18/check-box-outline-128.png;shadow=0;sketch=0;strokeColor=#CCCCCC;" vertex="1" parent="GESPt3fLsgeeLDVvOT6Z-78">
          <mxGeometry x="7.5" y="7.5" width="15" height="15" as="geometry" />
        </mxCell>
        <mxCell id="GESPt3fLsgeeLDVvOT6Z-121" value="" style="html=1;shadow=0;dashed=0;shape=mxgraph.bootstrap.rrect;rSize=5;strokeColor=none;fillColor=#f6f6f6;whiteSpace=wrap;sketch=0;fontSize=12;" vertex="1" parent="GESPt3fLsgeeLDVvOT6Z-78">
          <mxGeometry x="115" y="11.5" width="170" height="7" as="geometry" />
        </mxCell>
        <mxCell id="GESPt3fLsgeeLDVvOT6Z-122" value="" style="html=1;shadow=0;dashed=0;shape=mxgraph.bootstrap.leftButtonStriped;fillColor=#0085FC;fontColor=#FFFFFF;whiteSpace=wrap;" vertex="1" parent="GESPt3fLsgeeLDVvOT6Z-121">
          <mxGeometry width="106.25" height="7" as="geometry" />
        </mxCell>
        <mxCell id="GESPt3fLsgeeLDVvOT6Z-83" value="" style="group" vertex="1" connectable="0" parent="GESPt3fLsgeeLDVvOT6Z-51">
          <mxGeometry y="180" width="370" height="30" as="geometry" />
        </mxCell>
        <mxCell id="GESPt3fLsgeeLDVvOT6Z-84" value="" style="html=1;shadow=0;dashed=0;shape=mxgraph.bootstrap.rrect;rSize=5;strokeColor=#6C767D;strokeWidth=1;fillColor=none;fontColor=#6C767D;whiteSpace=wrap;align=center;verticalAlign=middle;spacingLeft=0;fontStyle=0;fontSize=16;spacing=5;sketch=0;" vertex="1" parent="GESPt3fLsgeeLDVvOT6Z-83">
          <mxGeometry width="30" height="30" as="geometry" />
        </mxCell>
        <mxCell id="GESPt3fLsgeeLDVvOT6Z-85" value="Pattern6" style="html=1;shadow=0;dashed=0;shape=mxgraph.bootstrap.rrect;rSize=5;strokeColor=#6C767D;strokeWidth=1;fillColor=none;fontColor=#6C767D;whiteSpace=wrap;align=center;verticalAlign=middle;spacingLeft=0;fontStyle=0;fontSize=12;spacing=5;sketch=0;" vertex="1" parent="GESPt3fLsgeeLDVvOT6Z-83">
          <mxGeometry x="30" width="80" height="30" as="geometry" />
        </mxCell>
        <mxCell id="GESPt3fLsgeeLDVvOT6Z-86" value="" style="html=1;shadow=0;dashed=0;shape=mxgraph.bootstrap.rrect;rSize=5;strokeColor=#6C767D;strokeWidth=1;fillColor=none;fontColor=#6C767D;whiteSpace=wrap;align=center;verticalAlign=middle;spacingLeft=0;fontStyle=0;fontSize=12;spacing=5;sketch=0;" vertex="1" parent="GESPt3fLsgeeLDVvOT6Z-83">
          <mxGeometry x="110" width="180" height="30" as="geometry" />
        </mxCell>
        <mxCell id="GESPt3fLsgeeLDVvOT6Z-87" value="Status" style="html=1;shadow=0;dashed=0;shape=mxgraph.bootstrap.rrect;rSize=5;strokeColor=#6C767D;strokeWidth=1;fillColor=none;fontColor=#6C767D;whiteSpace=wrap;align=center;verticalAlign=middle;spacingLeft=0;fontStyle=0;fontSize=12;spacing=5;sketch=0;" vertex="1" parent="GESPt3fLsgeeLDVvOT6Z-83">
          <mxGeometry x="290" width="80" height="30" as="geometry" />
        </mxCell>
        <mxCell id="GESPt3fLsgeeLDVvOT6Z-109" value="" style="shape=image;html=1;verticalAlign=top;verticalLabelPosition=bottom;labelBackgroundColor=#ffffff;imageAspect=0;aspect=fixed;image=https://cdn1.iconfinder.com/data/icons/material-core/18/check-box-outline-128.png;shadow=0;sketch=0;strokeColor=#CCCCCC;" vertex="1" parent="GESPt3fLsgeeLDVvOT6Z-83">
          <mxGeometry x="7.5" y="7.5" width="15" height="15" as="geometry" />
        </mxCell>
        <mxCell id="GESPt3fLsgeeLDVvOT6Z-123" value="" style="html=1;shadow=0;dashed=0;shape=mxgraph.bootstrap.rrect;rSize=5;strokeColor=none;fillColor=#f6f6f6;whiteSpace=wrap;sketch=0;fontSize=12;" vertex="1" parent="GESPt3fLsgeeLDVvOT6Z-83">
          <mxGeometry x="115" y="11.5" width="170" height="7" as="geometry" />
        </mxCell>
        <mxCell id="GESPt3fLsgeeLDVvOT6Z-124" value="" style="html=1;shadow=0;dashed=0;shape=mxgraph.bootstrap.leftButtonStriped;fillColor=#0085FC;fontColor=#FFFFFF;whiteSpace=wrap;" vertex="1" parent="GESPt3fLsgeeLDVvOT6Z-123">
          <mxGeometry width="106.25" height="7" as="geometry" />
        </mxCell>
        <mxCell id="GESPt3fLsgeeLDVvOT6Z-88" value="" style="group" vertex="1" connectable="0" parent="GESPt3fLsgeeLDVvOT6Z-51">
          <mxGeometry y="210" width="370" height="30" as="geometry" />
        </mxCell>
        <mxCell id="GESPt3fLsgeeLDVvOT6Z-89" value="" style="html=1;shadow=0;dashed=0;shape=mxgraph.bootstrap.rrect;rSize=5;strokeColor=#6C767D;strokeWidth=1;fillColor=none;fontColor=#6C767D;whiteSpace=wrap;align=center;verticalAlign=middle;spacingLeft=0;fontStyle=0;fontSize=16;spacing=5;sketch=0;" vertex="1" parent="GESPt3fLsgeeLDVvOT6Z-88">
          <mxGeometry width="30" height="30" as="geometry" />
        </mxCell>
        <mxCell id="GESPt3fLsgeeLDVvOT6Z-90" value="Pattern7" style="html=1;shadow=0;dashed=0;shape=mxgraph.bootstrap.rrect;rSize=5;strokeColor=#6C767D;strokeWidth=1;fillColor=none;fontColor=#6C767D;whiteSpace=wrap;align=center;verticalAlign=middle;spacingLeft=0;fontStyle=0;fontSize=12;spacing=5;sketch=0;" vertex="1" parent="GESPt3fLsgeeLDVvOT6Z-88">
          <mxGeometry x="30" width="80" height="30" as="geometry" />
        </mxCell>
        <mxCell id="GESPt3fLsgeeLDVvOT6Z-91" value="" style="html=1;shadow=0;dashed=0;shape=mxgraph.bootstrap.rrect;rSize=5;strokeColor=#6C767D;strokeWidth=1;fillColor=none;fontColor=#6C767D;whiteSpace=wrap;align=center;verticalAlign=middle;spacingLeft=0;fontStyle=0;fontSize=12;spacing=5;sketch=0;" vertex="1" parent="GESPt3fLsgeeLDVvOT6Z-88">
          <mxGeometry x="110" width="180" height="30" as="geometry" />
        </mxCell>
        <mxCell id="GESPt3fLsgeeLDVvOT6Z-92" value="Status" style="html=1;shadow=0;dashed=0;shape=mxgraph.bootstrap.rrect;rSize=5;strokeColor=#6C767D;strokeWidth=1;fillColor=none;fontColor=#6C767D;whiteSpace=wrap;align=center;verticalAlign=middle;spacingLeft=0;fontStyle=0;fontSize=12;spacing=5;sketch=0;" vertex="1" parent="GESPt3fLsgeeLDVvOT6Z-88">
          <mxGeometry x="290" width="80" height="30" as="geometry" />
        </mxCell>
        <mxCell id="GESPt3fLsgeeLDVvOT6Z-110" value="" style="shape=image;html=1;verticalAlign=top;verticalLabelPosition=bottom;labelBackgroundColor=#ffffff;imageAspect=0;aspect=fixed;image=https://cdn1.iconfinder.com/data/icons/material-core/18/check-box-outline-128.png;shadow=0;sketch=0;strokeColor=#CCCCCC;" vertex="1" parent="GESPt3fLsgeeLDVvOT6Z-88">
          <mxGeometry x="7.5" y="7.5" width="15" height="15" as="geometry" />
        </mxCell>
        <mxCell id="GESPt3fLsgeeLDVvOT6Z-125" value="" style="html=1;shadow=0;dashed=0;shape=mxgraph.bootstrap.rrect;rSize=5;strokeColor=none;fillColor=#f6f6f6;whiteSpace=wrap;sketch=0;fontSize=12;" vertex="1" parent="GESPt3fLsgeeLDVvOT6Z-88">
          <mxGeometry x="115" y="11.5" width="170" height="7" as="geometry" />
        </mxCell>
        <mxCell id="GESPt3fLsgeeLDVvOT6Z-126" value="" style="html=1;shadow=0;dashed=0;shape=mxgraph.bootstrap.leftButtonStriped;fillColor=#0085FC;fontColor=#FFFFFF;whiteSpace=wrap;" vertex="1" parent="GESPt3fLsgeeLDVvOT6Z-125">
          <mxGeometry width="106.25" height="7" as="geometry" />
        </mxCell>
        <mxCell id="GESPt3fLsgeeLDVvOT6Z-93" value="" style="group" vertex="1" connectable="0" parent="GESPt3fLsgeeLDVvOT6Z-51">
          <mxGeometry y="240" width="370" height="30" as="geometry" />
        </mxCell>
        <mxCell id="GESPt3fLsgeeLDVvOT6Z-94" value="" style="html=1;shadow=0;dashed=0;shape=mxgraph.bootstrap.rrect;rSize=5;strokeColor=#6C767D;strokeWidth=1;fillColor=none;fontColor=#6C767D;whiteSpace=wrap;align=center;verticalAlign=middle;spacingLeft=0;fontStyle=0;fontSize=16;spacing=5;sketch=0;" vertex="1" parent="GESPt3fLsgeeLDVvOT6Z-93">
          <mxGeometry width="30" height="30" as="geometry" />
        </mxCell>
        <mxCell id="GESPt3fLsgeeLDVvOT6Z-95" value="Pattern8" style="html=1;shadow=0;dashed=0;shape=mxgraph.bootstrap.rrect;rSize=5;strokeColor=#6C767D;strokeWidth=1;fillColor=none;fontColor=#6C767D;whiteSpace=wrap;align=center;verticalAlign=middle;spacingLeft=0;fontStyle=0;fontSize=12;spacing=5;sketch=0;" vertex="1" parent="GESPt3fLsgeeLDVvOT6Z-93">
          <mxGeometry x="30" width="80" height="30" as="geometry" />
        </mxCell>
        <mxCell id="GESPt3fLsgeeLDVvOT6Z-96" value="" style="html=1;shadow=0;dashed=0;shape=mxgraph.bootstrap.rrect;rSize=5;strokeColor=#6C767D;strokeWidth=1;fillColor=none;fontColor=#6C767D;whiteSpace=wrap;align=center;verticalAlign=middle;spacingLeft=0;fontStyle=0;fontSize=12;spacing=5;sketch=0;" vertex="1" parent="GESPt3fLsgeeLDVvOT6Z-93">
          <mxGeometry x="110" width="180" height="30" as="geometry" />
        </mxCell>
        <mxCell id="GESPt3fLsgeeLDVvOT6Z-97" value="Status" style="html=1;shadow=0;dashed=0;shape=mxgraph.bootstrap.rrect;rSize=5;strokeColor=#6C767D;strokeWidth=1;fillColor=none;fontColor=#6C767D;whiteSpace=wrap;align=center;verticalAlign=middle;spacingLeft=0;fontStyle=0;fontSize=12;spacing=5;sketch=0;" vertex="1" parent="GESPt3fLsgeeLDVvOT6Z-93">
          <mxGeometry x="290" width="80" height="30" as="geometry" />
        </mxCell>
        <mxCell id="GESPt3fLsgeeLDVvOT6Z-111" value="" style="shape=image;html=1;verticalAlign=top;verticalLabelPosition=bottom;labelBackgroundColor=#ffffff;imageAspect=0;aspect=fixed;image=https://cdn1.iconfinder.com/data/icons/material-core/18/check-box-outline-128.png;shadow=0;sketch=0;strokeColor=#CCCCCC;" vertex="1" parent="GESPt3fLsgeeLDVvOT6Z-93">
          <mxGeometry x="7.5" y="7.5" width="15" height="15" as="geometry" />
        </mxCell>
        <mxCell id="GESPt3fLsgeeLDVvOT6Z-127" value="" style="html=1;shadow=0;dashed=0;shape=mxgraph.bootstrap.rrect;rSize=5;strokeColor=none;fillColor=#f6f6f6;whiteSpace=wrap;sketch=0;fontSize=12;" vertex="1" parent="GESPt3fLsgeeLDVvOT6Z-93">
          <mxGeometry x="115" y="11.5" width="170" height="7" as="geometry" />
        </mxCell>
        <mxCell id="GESPt3fLsgeeLDVvOT6Z-128" value="" style="html=1;shadow=0;dashed=0;shape=mxgraph.bootstrap.leftButtonStriped;fillColor=#0085FC;fontColor=#FFFFFF;whiteSpace=wrap;" vertex="1" parent="GESPt3fLsgeeLDVvOT6Z-127">
          <mxGeometry width="106.25" height="7" as="geometry" />
        </mxCell>
        <mxCell id="GESPt3fLsgeeLDVvOT6Z-98" value="" style="group" vertex="1" connectable="0" parent="GESPt3fLsgeeLDVvOT6Z-51">
          <mxGeometry y="270" width="370" height="30" as="geometry" />
        </mxCell>
        <mxCell id="GESPt3fLsgeeLDVvOT6Z-99" value="" style="html=1;shadow=0;dashed=0;shape=mxgraph.bootstrap.rrect;rSize=5;strokeColor=#6C767D;strokeWidth=1;fillColor=none;fontColor=#6C767D;whiteSpace=wrap;align=center;verticalAlign=middle;spacingLeft=0;fontStyle=0;fontSize=16;spacing=5;sketch=0;" vertex="1" parent="GESPt3fLsgeeLDVvOT6Z-98">
          <mxGeometry width="30" height="30" as="geometry" />
        </mxCell>
        <mxCell id="GESPt3fLsgeeLDVvOT6Z-100" value="Pattern9" style="html=1;shadow=0;dashed=0;shape=mxgraph.bootstrap.rrect;rSize=5;strokeColor=#6C767D;strokeWidth=1;fillColor=none;fontColor=#6C767D;whiteSpace=wrap;align=center;verticalAlign=middle;spacingLeft=0;fontStyle=0;fontSize=12;spacing=5;sketch=0;" vertex="1" parent="GESPt3fLsgeeLDVvOT6Z-98">
          <mxGeometry x="30" width="80" height="30" as="geometry" />
        </mxCell>
        <mxCell id="GESPt3fLsgeeLDVvOT6Z-101" value="" style="html=1;shadow=0;dashed=0;shape=mxgraph.bootstrap.rrect;rSize=5;strokeColor=#6C767D;strokeWidth=1;fillColor=none;fontColor=#6C767D;whiteSpace=wrap;align=center;verticalAlign=middle;spacingLeft=0;fontStyle=0;fontSize=12;spacing=5;sketch=0;" vertex="1" parent="GESPt3fLsgeeLDVvOT6Z-98">
          <mxGeometry x="110" width="180" height="30" as="geometry" />
        </mxCell>
        <mxCell id="GESPt3fLsgeeLDVvOT6Z-102" value="Status" style="html=1;shadow=0;dashed=0;shape=mxgraph.bootstrap.rrect;rSize=5;strokeColor=#6C767D;strokeWidth=1;fillColor=none;fontColor=#6C767D;whiteSpace=wrap;align=center;verticalAlign=middle;spacingLeft=0;fontStyle=0;fontSize=12;spacing=5;sketch=0;" vertex="1" parent="GESPt3fLsgeeLDVvOT6Z-98">
          <mxGeometry x="290" width="80" height="30" as="geometry" />
        </mxCell>
        <mxCell id="GESPt3fLsgeeLDVvOT6Z-112" value="" style="shape=image;html=1;verticalAlign=top;verticalLabelPosition=bottom;labelBackgroundColor=#ffffff;imageAspect=0;aspect=fixed;image=https://cdn1.iconfinder.com/data/icons/material-core/18/check-box-outline-128.png;shadow=0;sketch=0;strokeColor=#CCCCCC;" vertex="1" parent="GESPt3fLsgeeLDVvOT6Z-98">
          <mxGeometry x="7.5" y="7.5" width="15" height="15" as="geometry" />
        </mxCell>
        <mxCell id="GESPt3fLsgeeLDVvOT6Z-129" value="" style="html=1;shadow=0;dashed=0;shape=mxgraph.bootstrap.rrect;rSize=5;strokeColor=none;fillColor=#f6f6f6;whiteSpace=wrap;sketch=0;fontSize=12;" vertex="1" parent="GESPt3fLsgeeLDVvOT6Z-98">
          <mxGeometry x="115" y="11.5" width="170" height="7" as="geometry" />
        </mxCell>
        <mxCell id="GESPt3fLsgeeLDVvOT6Z-130" value="" style="html=1;shadow=0;dashed=0;shape=mxgraph.bootstrap.leftButtonStriped;fillColor=#0085FC;fontColor=#FFFFFF;whiteSpace=wrap;" vertex="1" parent="GESPt3fLsgeeLDVvOT6Z-129">
          <mxGeometry width="106.25" height="7" as="geometry" />
        </mxCell>
      </root>
    </mxGraphModel>
  </diagram>
  <diagram name="Page-1" id="03018318-947c-dd8e-b7a3-06fadd420f32">
    <mxGraphModel dx="1422" dy="706" grid="1" gridSize="10" guides="1" tooltips="1" connect="1" arrows="1" fold="1" page="1" pageScale="1" pageWidth="1100" pageHeight="850" background="#ffffff" math="0" shadow="0">
      <root>
        <mxCell id="0" />
        <mxCell id="1" parent="0" />
        <mxCell id="677b7b8949515195-1" value="" style="whiteSpace=wrap;html=1;rounded=0;shadow=0;labelBackgroundColor=none;strokeColor=#000000;strokeWidth=1;fillColor=none;fontFamily=Verdana;fontSize=12;fontColor=#000000;align=center;comic=1;" parent="1" vertex="1">
          <mxGeometry x="20" y="20" width="1060" height="810" as="geometry" />
        </mxCell>
        <mxCell id="677b7b8949515195-2" value="LOGO" style="whiteSpace=wrap;html=1;rounded=0;shadow=0;labelBackgroundColor=none;strokeWidth=1;fontFamily=Verdana;fontSize=28;align=center;comic=1;" parent="1" vertex="1">
          <mxGeometry x="40" y="60" width="190" height="50" as="geometry" />
        </mxCell>
        <mxCell id="677b7b8949515195-3" value="Search" style="strokeWidth=1;shadow=0;dashed=0;align=center;html=1;shape=mxgraph.mockup.forms.searchBox;strokeColor=#999999;mainText=;strokeColor2=#008cff;fontColor=#666666;fontSize=17;align=left;spacingLeft=3;rounded=0;labelBackgroundColor=none;comic=1;" parent="1" vertex="1">
          <mxGeometry x="840" y="95" width="220" height="30" as="geometry" />
        </mxCell>
        <mxCell id="677b7b8949515195-4" value="Topic 1" style="text;html=1;points=[];align=left;verticalAlign=top;spacingTop=-4;fontSize=14;fontFamily=Verdana" parent="1" vertex="1">
          <mxGeometry x="780" y="40" width="60" height="20" as="geometry" />
        </mxCell>
        <mxCell id="677b7b8949515195-5" value="Topic 2" style="text;html=1;points=[];align=left;verticalAlign=top;spacingTop=-4;fontSize=14;fontFamily=Verdana" parent="1" vertex="1">
          <mxGeometry x="860" y="40" width="60" height="20" as="geometry" />
        </mxCell>
        <mxCell id="677b7b8949515195-6" value="Topic 3" style="text;html=1;points=[];align=left;verticalAlign=top;spacingTop=-4;fontSize=14;fontFamily=Verdana" parent="1" vertex="1">
          <mxGeometry x="930" y="40" width="60" height="20" as="geometry" />
        </mxCell>
        <mxCell id="677b7b8949515195-7" value="Topic 4" style="text;html=1;points=[];align=left;verticalAlign=top;spacingTop=-4;fontSize=14;fontFamily=Verdana" parent="1" vertex="1">
          <mxGeometry x="1000" y="40" width="60" height="20" as="geometry" />
        </mxCell>
        <mxCell id="677b7b8949515195-8" value="" style="whiteSpace=wrap;html=1;rounded=0;shadow=0;labelBackgroundColor=none;strokeWidth=1;fillColor=none;fontFamily=Verdana;fontSize=12;align=center;comic=1;" parent="1" vertex="1">
          <mxGeometry x="30" y="230" width="200" height="590" as="geometry" />
        </mxCell>
        <mxCell id="677b7b8949515195-9" value="" style="line;strokeWidth=1;html=1;rounded=0;shadow=0;labelBackgroundColor=none;fillColor=none;fontFamily=Verdana;fontSize=14;fontColor=#000000;align=center;comic=1;" parent="1" vertex="1">
          <mxGeometry x="20" y="140" width="1060" height="10" as="geometry" />
        </mxCell>
        <mxCell id="677b7b8949515195-10" value="" style="whiteSpace=wrap;html=1;rounded=0;shadow=0;labelBackgroundColor=none;strokeWidth=1;fillColor=none;fontFamily=Verdana;fontSize=12;align=center;comic=1;" parent="1" vertex="1">
          <mxGeometry x="30" y="160" width="1040" height="50" as="geometry" />
        </mxCell>
        <mxCell id="677b7b8949515195-11" value="Section 1" style="text;html=1;points=[];align=left;verticalAlign=top;spacingTop=-4;fontSize=14;fontFamily=Verdana" parent="1" vertex="1">
          <mxGeometry x="330" y="175" width="60" height="20" as="geometry" />
        </mxCell>
        <mxCell id="677b7b8949515195-12" value="Section 2" style="text;html=1;points=[];align=left;verticalAlign=top;spacingTop=-4;fontSize=14;fontFamily=Verdana" parent="1" vertex="1">
          <mxGeometry x="477" y="175" width="60" height="20" as="geometry" />
        </mxCell>
        <mxCell id="677b7b8949515195-13" value="Section 3" style="text;html=1;points=[];align=left;verticalAlign=top;spacingTop=-4;fontSize=14;fontFamily=Verdana" parent="1" vertex="1">
          <mxGeometry x="623" y="175" width="60" height="20" as="geometry" />
        </mxCell>
        <mxCell id="677b7b8949515195-14" value="Section 4" style="text;html=1;points=[];align=left;verticalAlign=top;spacingTop=-4;fontSize=14;fontFamily=Verdana" parent="1" vertex="1">
          <mxGeometry x="770" y="175" width="60" height="20" as="geometry" />
        </mxCell>
        <mxCell id="677b7b8949515195-15" value="&lt;div style=&quot;text-align: justify&quot;&gt;&lt;span&gt;Lorem ipsum dolor sit amet, consectetur adipisicing elit, sed do eiusmod tempor incididunt ut labore et dolore magna aliqua. Ut enim ad minim veniam, quis nostrud exercitation ullamco laboris nisi ut aliquip ex ea commodo consequat. Duis aute irure dolor in reprehenderit in voluptate velit esse cillum dolore eu fugiat nulla pariatur. Excepteur sint occaecat cupidatat non proident, sunt in culpa qui officia deserunt mollit anim id est laborum.&lt;/span&gt;&lt;/div&gt;&lt;div style=&quot;text-align: justify&quot;&gt;&lt;span&gt;Sed ut perspiciatis unde omnis iste natus error sit voluptatem accusantium doloremque laudantium, totam rem aperiam, eaque ipsa quae ab illo inventore veritatis et quasi architecto beatae vitae dicta sunt explicabo. Nemo enim ipsam voluptatem quia voluptas sit aspernatur aut odit aut fugit, sed quia consequuntur magni dolores eos qui ratione voluptatem sequi nesciunt.&amp;nbsp;&lt;/span&gt;&lt;/div&gt;" style="whiteSpace=wrap;html=1;rounded=0;shadow=0;labelBackgroundColor=none;strokeWidth=1;fillColor=none;fontFamily=Verdana;fontSize=12;align=center;verticalAlign=top;spacing=10;comic=1;" parent="1" vertex="1">
          <mxGeometry x="250" y="640" width="580" height="180" as="geometry" />
        </mxCell>
        <mxCell id="677b7b8949515195-16" value="" style="verticalLabelPosition=bottom;shadow=0;dashed=0;align=center;html=1;verticalAlign=top;strokeWidth=1;shape=mxgraph.mockup.graphics.simpleIcon;strokeColor=#999999;rounded=0;labelBackgroundColor=none;fontFamily=Verdana;fontSize=14;fontColor=#000000;comic=1;" parent="1" vertex="1">
          <mxGeometry x="250" y="230" width="580" height="400" as="geometry" />
        </mxCell>
        <mxCell id="677b7b8949515195-25" value="" style="whiteSpace=wrap;html=1;rounded=0;shadow=0;labelBackgroundColor=none;strokeWidth=1;fillColor=none;fontFamily=Verdana;fontSize=12;align=center;comic=1;" parent="1" vertex="1">
          <mxGeometry x="840" y="230" width="230" height="400" as="geometry" />
        </mxCell>
        <mxCell id="677b7b8949515195-26" value="" style="whiteSpace=wrap;html=1;rounded=0;shadow=0;labelBackgroundColor=none;strokeWidth=1;fillColor=none;fontFamily=Verdana;fontSize=12;align=center;comic=1;" parent="1" vertex="1">
          <mxGeometry x="840" y="640" width="230" height="180" as="geometry" />
        </mxCell>
        <mxCell id="677b7b8949515195-27" value="Section 1" style="text;html=1;points=[];align=left;verticalAlign=top;spacingTop=-4;fontSize=14;fontFamily=Verdana" parent="1" vertex="1">
          <mxGeometry x="40" y="250" width="170" height="20" as="geometry" />
        </mxCell>
        <mxCell id="677b7b8949515195-28" value="Section 2" style="text;html=1;points=[];align=left;verticalAlign=top;spacingTop=-4;fontSize=14;fontFamily=Verdana" parent="1" vertex="1">
          <mxGeometry x="40" y="286" width="170" height="20" as="geometry" />
        </mxCell>
        <mxCell id="677b7b8949515195-29" value="Section 3" style="text;html=1;points=[];align=left;verticalAlign=top;spacingTop=-4;fontSize=14;fontFamily=Verdana" parent="1" vertex="1">
          <mxGeometry x="40" y="321" width="170" height="20" as="geometry" />
        </mxCell>
        <mxCell id="677b7b8949515195-30" value="Section 4" style="text;html=1;points=[];align=left;verticalAlign=top;spacingTop=-4;fontSize=14;fontFamily=Verdana" parent="1" vertex="1">
          <mxGeometry x="40" y="357" width="170" height="20" as="geometry" />
        </mxCell>
        <mxCell id="677b7b8949515195-31" value="Section 7" style="text;html=1;points=[];align=left;verticalAlign=top;spacingTop=-4;fontSize=14;fontFamily=Verdana" parent="1" vertex="1">
          <mxGeometry x="40" y="464" width="170" height="20" as="geometry" />
        </mxCell>
        <mxCell id="677b7b8949515195-32" value="Section 8" style="text;html=1;points=[];align=left;verticalAlign=top;spacingTop=-4;fontSize=14;fontFamily=Verdana" parent="1" vertex="1">
          <mxGeometry x="40" y="500" width="170" height="20" as="geometry" />
        </mxCell>
        <mxCell id="677b7b8949515195-33" value="Section 9" style="text;html=1;points=[];align=left;verticalAlign=top;spacingTop=-4;fontSize=14;fontFamily=Verdana" parent="1" vertex="1">
          <mxGeometry x="40" y="536" width="170" height="20" as="geometry" />
        </mxCell>
        <mxCell id="677b7b8949515195-34" value="Section 10" style="text;html=1;points=[];align=left;verticalAlign=top;spacingTop=-4;fontSize=14;fontFamily=Verdana" parent="1" vertex="1">
          <mxGeometry x="40" y="571" width="170" height="20" as="geometry" />
        </mxCell>
        <mxCell id="677b7b8949515195-35" value="Section 11" style="text;html=1;points=[];align=left;verticalAlign=top;spacingTop=-4;fontSize=14;fontFamily=Verdana" parent="1" vertex="1">
          <mxGeometry x="40" y="607" width="170" height="20" as="geometry" />
        </mxCell>
        <mxCell id="677b7b8949515195-36" value="Section 12" style="text;html=1;points=[];align=left;verticalAlign=top;spacingTop=-4;fontSize=14;fontFamily=Verdana" parent="1" vertex="1">
          <mxGeometry x="40" y="643" width="170" height="20" as="geometry" />
        </mxCell>
        <mxCell id="677b7b8949515195-37" value="Section 13" style="text;html=1;points=[];align=left;verticalAlign=top;spacingTop=-4;fontSize=14;fontFamily=Verdana" parent="1" vertex="1">
          <mxGeometry x="40" y="679" width="170" height="20" as="geometry" />
        </mxCell>
        <mxCell id="677b7b8949515195-38" value="Section 14" style="text;html=1;points=[];align=left;verticalAlign=top;spacingTop=-4;fontSize=14;fontFamily=Verdana" parent="1" vertex="1">
          <mxGeometry x="40" y="714" width="170" height="20" as="geometry" />
        </mxCell>
        <mxCell id="677b7b8949515195-39" value="Section 5" style="text;html=1;points=[];align=left;verticalAlign=top;spacingTop=-4;fontSize=14;fontFamily=Verdana" parent="1" vertex="1">
          <mxGeometry x="40" y="393" width="170" height="20" as="geometry" />
        </mxCell>
        <mxCell id="677b7b8949515195-40" value="Section 6" style="text;html=1;points=[];align=left;verticalAlign=top;spacingTop=-4;fontSize=14;fontFamily=Verdana" parent="1" vertex="1">
          <mxGeometry x="40" y="429" width="170" height="20" as="geometry" />
        </mxCell>
        <mxCell id="677b7b8949515195-41" value="Section 15" style="text;html=1;points=[];align=left;verticalAlign=top;spacingTop=-4;fontSize=14;fontFamily=Verdana" parent="1" vertex="1">
          <mxGeometry x="40" y="750" width="170" height="20" as="geometry" />
        </mxCell>
        <mxCell id="677b7b8949515195-42" value="External Links" style="text;html=1;points=[];align=left;verticalAlign=top;spacingTop=-4;fontSize=14;fontFamily=Verdana" parent="1" vertex="1">
          <mxGeometry x="860" y="653" width="170" height="20" as="geometry" />
        </mxCell>
        <mxCell id="677b7b8949515195-44" value="Feature 1" style="text;html=1;points=[];align=left;verticalAlign=top;spacingTop=-4;fontSize=14;fontFamily=Verdana" parent="1" vertex="1">
          <mxGeometry x="860" y="250" width="170" height="20" as="geometry" />
        </mxCell>
        <mxCell id="677b7b8949515195-45" value="Feature 2" style="text;html=1;points=[];align=left;verticalAlign=top;spacingTop=-4;fontSize=14;fontFamily=Verdana" parent="1" vertex="1">
          <mxGeometry x="860" y="285" width="170" height="20" as="geometry" />
        </mxCell>
        <mxCell id="677b7b8949515195-46" value="Feature 3" style="text;html=1;points=[];align=left;verticalAlign=top;spacingTop=-4;fontSize=14;fontFamily=Verdana" parent="1" vertex="1">
          <mxGeometry x="860" y="320" width="170" height="20" as="geometry" />
        </mxCell>
        <mxCell id="677b7b8949515195-47" value="Feature 4" style="text;html=1;points=[];align=left;verticalAlign=top;spacingTop=-4;fontSize=14;fontFamily=Verdana" parent="1" vertex="1">
          <mxGeometry x="860" y="355" width="170" height="20" as="geometry" />
        </mxCell>
        <mxCell id="677b7b8949515195-48" value="Feature 5" style="text;html=1;points=[];align=left;verticalAlign=top;spacingTop=-4;fontSize=14;fontFamily=Verdana" parent="1" vertex="1">
          <mxGeometry x="860" y="390" width="170" height="20" as="geometry" />
        </mxCell>
        <mxCell id="677b7b8949515195-49" value="Feature 6" style="text;html=1;points=[];align=left;verticalAlign=top;spacingTop=-4;fontSize=14;fontFamily=Verdana" parent="1" vertex="1">
          <mxGeometry x="860" y="425" width="170" height="20" as="geometry" />
        </mxCell>
      </root>
    </mxGraphModel>
  </diagram>
</mxfile>
